<?xml version="1.0" encoding="UTF-8" standalone="no"?> <svg width="64" height="64" viewBox="0 0 64 64" fill="#FFFFFF" xmlns="http://www.w3.org/2000/svg">
<path d="M56 3.9999C48.67 3.8899 40.82 5.4999 32 8.8899C23.15 5.4999 15.29 3.9199 8 3.9999C6.54293 4.00517 5.14704 4.58633 4.11673 5.61664C3.08642 6.64695 2.50527 8.04283 2.5 9.4999V49.4999C2.50788 50.9562 3.08987 52.3505 4.11962 53.3803C5.14937 54.41 6.54374 54.992 8 54.9999C15.1 54.8999 22.77 56.5099 31.43 59.8999C31.7851 60.0299 32.1749 60.0299 32.53 59.8999C41.18 56.5099 48.83 54.8999 55.98 54.9999C57.4355 54.9894 58.8283 54.4066 59.8575 53.3774C60.8867 52.3482 61.4695 50.9554 61.48 49.4999V9.4999C61.4774 8.04548 60.8998 6.65107 59.8733 5.62077C58.8467 4.59046 57.4544 4.00782 56 3.9999V3.9999ZM8 51.9999C7.33777 51.9973 6.70341 51.733 6.23514 51.2648C5.76687 50.7965 5.50263 50.1621 5.5 49.4999V9.4999C5.50263 8.83767 5.76687 8.20332 6.23514 7.73505C6.70341 7.26677 7.33777 7.00254 8 6.9999C14.8 6.9099 22.17 8.3999 30.48 11.5499V56.3499C23.5124 53.6272 16.1191 52.1546 8.64 51.9999H8ZM58.5 49.4999C58.4948 50.1613 58.2297 50.7942 57.762 51.2619C57.2943 51.7296 56.6614 51.9947 56 51.9999C49.06 51.8999 41.67 53.3499 33.48 56.3499V11.5499C41.8 8.4099 49.17 6.9199 56 6.9999C56.663 6.9999 57.2989 7.2633 57.7678 7.73214C58.2366 8.20098 58.5 8.83686 58.5 9.4999V49.4999Z" fill="black"/>
</svg>
